<svg width="13" height="13" viewBox="0 0 13 13" fill="none" xmlns="http://www.w3.org/2000/svg">
<path d="M10.883 1.8795C9.9234 0.919895 8.70826 0.309587 7.36897 0.11455C6.0748 -0.0740426 4.72645 0.153963 3.57259 0.756185C3.38135 0.856028 3.30721 1.09196 3.40705 1.28321C3.50685 1.47446 3.74275 1.5486 3.93408 1.44876C6.06156 0.338376 8.63216 0.73349 10.3306 2.43195C12.4628 4.5642 12.4628 8.03359 10.3306 10.1658C8.19834 12.2981 4.72891 12.2981 2.59666 10.1658C0.898123 8.46734 0.503048 5.89669 1.61366 3.76909C1.71351 3.57784 1.63937 3.34187 1.44816 3.24206C1.25679 3.14218 1.0209 3.21636 0.921092 3.40757C0.318792 4.56147 0.0908639 5.90978 0.2793 7.2041C0.474259 8.54343 1.08457 9.75861 2.04425 10.7183C3.26267 11.9367 4.86317 12.5459 6.46367 12.5459C8.06416 12.5459 9.66462 11.9367 10.8831 10.7183C13.3199 8.28144 13.3199 4.31635 10.883 1.8795Z" fill="white"/>
</svg>
