<svg width="21" height="21" viewBox="0 0 21 21" fill="none" xmlns="http://www.w3.org/2000/svg">
<rect x="14" y="11.0833" width="5" height="5" rx="2.5" stroke="black" stroke-width="1.25"/>
<path d="M9.83301 13.5833V12.3333C9.83301 10.762 9.83301 9.97631 9.34485 9.48816C8.8567 9 8.07102 9 6.49967 9H5.99967C5.69014 9 5.53537 9 5.40481 9.01028C3.77022 9.13892 2.47193 10.4372 2.34328 12.0718C2.33301 12.2024 2.33301 12.3571 2.33301 12.6667C2.33301 12.744 2.33301 12.7827 2.33558 12.8154C2.36774 13.224 2.69231 13.5486 3.10096 13.5808C3.1336 13.5833 3.17229 13.5833 3.24967 13.5833H9.83301ZM9.83301 13.5833H13.9997" stroke="black" stroke-width="1.25" stroke-linecap="round"/>
<path d="M8.58301 13.5833C8.58301 14.9641 7.46372 16.0833 6.08301 16.0833C4.7023 16.0833 3.58301 14.9641 3.58301 13.5833" stroke="black" stroke-width="1.25" stroke-linecap="round"/>
<path d="M10.6665 4.41666H11.1064C12.1087 4.41666 12.6099 4.41666 13.0127 4.66557C13.4154 4.91449 13.6396 5.36275 14.0878 6.25928L16.4998 11.0833" stroke="black" stroke-width="1.25" stroke-linecap="round"/>
<path d="M15.7853 9.41667L16.3534 8.99816C16.5725 8.83679 16.682 8.7561 16.7581 8.65092C16.81 8.57933 16.8501 8.49995 16.877 8.41575C16.9165 8.29205 16.9165 8.15601 16.9165 7.88393C16.9165 7.3694 16.9165 7.11213 16.8068 6.92004C16.7329 6.79073 16.6258 6.68357 16.4965 6.60971C16.3044 6.5 16.0471 6.5 15.5326 6.5H14.4165" stroke="black" stroke-width="1.25" stroke-linecap="round"/>
<circle cx="16.5" cy="13.5833" r="2.5" stroke="black" stroke-width="1.25"/>
</svg>
