<svg width="20" height="21" viewBox="0 0 20 21" fill="none" xmlns="http://www.w3.org/2000/svg">
<path d="M9.1665 8.87499C9.1665 6.34368 11.2185 4.29166 13.7498 4.29166C16.2811 4.29166 18.3332 6.34368 18.3332 8.87499C18.3332 11.4063 16.2811 13.4583 13.7498 13.4583C11.2185 13.4583 9.1665 11.4063 9.1665 8.87499Z" stroke="white" stroke-width="1.25"/>
<path d="M13.75 16.7917V13.4583M13.75 16.7917H16.25M13.75 16.7917H11.25" stroke="white" stroke-width="1.25" stroke-linecap="round" stroke-linejoin="round"/>
<path d="M1.6665 9.29166V8.66666C1.32133 8.66666 1.0415 8.94648 1.0415 9.29166H1.6665ZM6.6665 9.29166H7.2915C7.2915 8.94648 7.01168 8.66666 6.6665 8.66666V9.29166ZM1.6665 9.29166V9.91666H6.6665V9.29166V8.66666H1.6665V9.29166ZM6.6665 9.29166H6.0415V14.2917H6.6665H7.2915V9.29166H6.6665ZM1.6665 14.2917H2.2915V9.29166H1.6665H1.0415V14.2917H1.6665ZM4.1665 16.7917V16.1667C3.13097 16.1667 2.2915 15.3272 2.2915 14.2917H1.6665H1.0415C1.0415 16.0175 2.44061 17.4167 4.1665 17.4167V16.7917ZM6.6665 14.2917H6.0415C6.0415 15.3272 5.20204 16.1667 4.1665 16.1667V16.7917V17.4167C5.89239 17.4167 7.2915 16.0175 7.2915 14.2917H6.6665Z" fill="white"/>
<path d="M2.5 9.29167H5.83333V4.8067C5.83333 4.18721 5.18141 3.7843 4.62732 4.06134L2.96066 4.89468C2.67834 5.03584 2.5 5.32439 2.5 5.64003V9.29167Z" stroke="white" stroke-width="1.25"/>
</svg>
