<svg width="21" height="21" viewBox="0 0 21 21" fill="none" xmlns="http://www.w3.org/2000/svg">
<path fill-rule="evenodd" clip-rule="evenodd" d="M8.5533 3.25673C9.90556 2.62276 11.427 2.62276 12.7793 3.25673L18.3553 5.87089C19.2322 6.282 19.6247 7.17477 19.6247 7.9896C19.6247 8.80444 19.2322 9.6972 18.3553 10.1083L17.1247 10.6853V14.7608C17.1247 15.805 16.6011 16.8131 15.648 17.341C15.0216 17.6879 14.1984 18.1055 13.332 18.4379C12.4759 18.7663 11.5279 19.0312 10.6663 19.0312C9.80475 19.0312 8.85676 18.7663 8.00064 18.4379C7.13433 18.1055 6.3111 17.6879 5.68466 17.341C4.73155 16.8131 4.20801 15.805 4.20801 14.7608V10.6852L2.97737 10.1083L2.95801 10.0991V12.5729C2.95801 12.9181 2.67819 13.1979 2.33301 13.1979C1.98783 13.1979 1.70801 12.9181 1.70801 12.5729V7.98958C1.70801 7.17475 2.10046 6.28196 2.97737 5.87085L8.5533 3.25673ZM5.45801 11.2713V14.7608C5.45801 15.3966 5.77363 15.9614 6.29024 16.2475C6.88745 16.5782 7.65533 16.9666 8.44838 17.2708C9.25162 17.579 10.0313 17.7812 10.6663 17.7812C11.3014 17.7812 12.0811 17.579 12.8843 17.2708C13.6774 16.9666 14.4452 16.5782 15.0424 16.2475C15.559 15.9614 15.8747 15.3966 15.8747 14.7608V11.2713L12.7794 12.7224C11.4271 13.3564 9.90564 13.3564 8.55337 12.7224L5.45801 11.2713ZM3.50798 8.97649C3.172 8.81897 2.95801 8.44324 2.95801 7.98957C2.95801 7.53589 3.172 7.16016 3.50798 7.00264L9.08391 4.38852C10.1 3.91216 11.2326 3.91216 12.2487 4.38852L17.8247 7.00268C18.1607 7.16019 18.3747 7.53593 18.3747 7.9896C18.3747 8.44327 18.1607 8.81901 17.8247 8.97653L12.2488 11.5906C11.2327 12.067 10.1001 12.067 9.08398 11.5906L3.50798 8.97649Z" fill="black"/>
</svg>
