<svg width="21" height="21" viewBox="0 0 21 21" fill="none" xmlns="http://www.w3.org/2000/svg">
<path fill-rule="evenodd" clip-rule="evenodd" d="M8.5533 3.10048C9.90556 2.46651 11.427 2.46651 12.7793 3.10048L18.3553 5.71464C19.2322 6.12575 19.6247 7.01852 19.6247 7.83335C19.6247 8.64819 19.2322 9.54095 18.3553 9.95207L17.1247 10.529V14.6045C17.1247 15.6487 16.6011 16.6569 15.648 17.1847C15.0216 17.5316 14.1984 17.9493 13.332 18.2816C12.4759 18.6101 11.5279 18.875 10.6663 18.875C9.80475 18.875 8.85676 18.6101 8.00064 18.2816C7.13433 17.9493 6.3111 17.5316 5.68466 17.1847C4.73155 16.6569 4.20801 15.6487 4.20801 14.6045V10.529L2.97737 9.95203L2.95801 9.94284V12.4167C2.95801 12.7618 2.67819 13.0417 2.33301 13.0417C1.98783 13.0417 1.70801 12.7618 1.70801 12.4167V7.83333C1.70801 7.0185 2.10046 6.12571 2.97737 5.7146L8.5533 3.10048ZM5.45801 11.115V14.6045C5.45801 15.2404 5.77363 15.8051 6.29024 16.0912C6.88745 16.4219 7.65533 16.8103 8.44838 17.1146C9.25162 17.4227 10.0313 17.625 10.6663 17.625C11.3014 17.625 12.0811 17.4227 12.8843 17.1146C13.6774 16.8103 14.4452 16.4219 15.0424 16.0912C15.559 15.8051 15.8747 15.2404 15.8747 14.6045V11.115L12.7794 12.5662C11.4271 13.2002 9.90564 13.2002 8.55337 12.5662L5.45801 11.115ZM3.50798 8.82024C3.172 8.66272 2.95801 8.28699 2.95801 7.83332C2.95801 7.37964 3.172 7.00391 3.50798 6.84639L9.08391 4.23227C10.1 3.75591 11.2326 3.75591 12.2487 4.23227L17.8247 6.84643C18.1607 7.00394 18.3747 7.37968 18.3747 7.83335C18.3747 8.28702 18.1607 8.66276 17.8247 8.82028L12.2488 11.4344C11.2327 11.9108 10.1001 11.9108 9.08398 11.4344L3.50798 8.82024Z" fill="white"/>
</svg>
