<svg width="21" height="21" viewBox="0 0 21 21" fill="none" xmlns="http://www.w3.org/2000/svg">
<path fill-rule="evenodd" clip-rule="evenodd" d="M4.97118 2L5.0103 2C5.23209 2 5.36712 1.99999 5.48479 2.00577C7.94629 2.1267 9.91465 4.09505 10.0356 6.55655C10.0414 6.67422 10.0413 6.80925 10.0413 7.03103V15.75C10.0413 17.1307 8.92205 18.25 7.54134 18.25C6.16063 18.25 5.04134 17.1307 5.04134 15.75V10.375C5.04134 10.2599 4.94807 10.1667 4.83301 10.1667C3.10712 10.1667 1.70801 8.76756 1.70801 7.04167L1.70801 5.26317C1.708 5.13549 1.708 5.04857 1.71177 4.97167C1.79064 3.36634 3.07435 2.08263 4.67967 2.00377C4.75658 1.99999 4.8435 1.99999 4.97118 2ZM4.98926 3.25C4.83676 3.25 4.78312 3.25019 4.74101 3.25226C3.77781 3.29958 3.00759 4.0698 2.96027 5.033C2.9582 5.07511 2.95801 5.12875 2.95801 5.28125V7.04167C2.95801 8.0772 3.79748 8.91667 4.83301 8.91667C5.63843 8.91667 6.29134 9.56959 6.29134 10.375V14.5H8.79134V7.05209C8.79134 6.80286 8.79115 6.70086 8.78708 6.61789C8.6977 4.79852 7.24283 3.34365 5.42346 3.25427C5.34048 3.25019 5.23848 3.25 4.98926 3.25ZM8.79134 15.75H6.29134C6.29134 16.4404 6.85099 17 7.54134 17C8.2317 17 8.79134 16.4404 8.79134 15.75ZM16.5917 3.25226C16.5496 3.25019 16.4959 3.25 16.3434 3.25C16.0942 3.25 15.9922 3.25019 15.9092 3.25427C14.0899 3.34365 12.635 4.79852 12.5456 6.61789C12.5415 6.70086 12.5413 6.80286 12.5413 7.05209V14.5H15.0413V10.375C15.0413 9.56959 15.6943 8.91667 16.4997 8.91667C17.5352 8.91667 18.3747 8.0772 18.3747 7.04167V5.28125C18.3747 5.12874 18.3745 5.07511 18.3724 5.033C18.3251 4.0698 17.5549 3.29958 16.5917 3.25226ZM15.0413 15.75H12.5413C12.5413 16.4404 13.101 17 13.7913 17C14.4817 17 15.0413 16.4404 15.0413 15.75ZM16.3615 2C16.4892 1.99999 16.5761 1.99999 16.653 2.00377C18.2583 2.08263 19.542 3.36634 19.6209 4.97166C19.6247 5.04856 19.6247 5.13546 19.6247 5.26309V7.04167C19.6247 8.76756 18.2256 10.1667 16.4997 10.1667C16.3846 10.1667 16.2913 10.2599 16.2913 10.375V15.75C16.2913 17.1307 15.1721 18.25 13.7913 18.25C12.4106 18.25 11.2913 17.1307 11.2913 15.75V7.03103C11.2913 6.80925 11.2913 6.67422 11.2971 6.55655C11.418 4.09505 13.3864 2.1267 15.8479 2.00577C15.9656 1.99999 16.1006 2 16.3224 2L16.3615 2ZM4.41634 4.5C4.76152 4.5 5.04134 4.77982 5.04134 5.125V7.20834C5.04134 7.55351 4.76152 7.83334 4.41634 7.83334C4.07116 7.83334 3.79134 7.55351 3.79134 7.20834V5.125C3.79134 4.77982 4.07116 4.5 4.41634 4.5ZM16.9163 4.5C17.2615 4.5 17.5413 4.77982 17.5413 5.125V7.20834C17.5413 7.55351 17.2615 7.83334 16.9163 7.83334C16.5712 7.83334 16.2913 7.55351 16.2913 7.20834V5.125C16.2913 4.77982 16.5712 4.5 16.9163 4.5Z" fill="black"/>
</svg>
