<svg width="20" height="20" viewBox="0 0 20 20" fill="none" xmlns="http://www.w3.org/2000/svg">
<path d="M7.94641 5.75757C7.94641 4.87893 8.73887 4.16666 9.71641 4.16666C10.694 4.16666 11.4864 4.87893 11.4864 5.75757C11.4864 6.17109 11.337 6.54776 11.0769 6.83068C10.5788 7.37254 9.83441 7.91829 9.83441 8.6212V8.85824M9.83441 8.85824C10.444 8.85115 11.056 9.02047 11.5703 9.36712L17.764 13.5424C18.8527 14.2763 18.2752 15.8333 16.9144 15.8333H3.08529C1.73917 15.8333 1.15252 14.304 2.21259 13.5583L8.12567 9.39892C8.62769 9.0458 9.22985 8.86527 9.83441 8.85824Z" stroke="black" stroke-width="1.25" stroke-linecap="round"/>
</svg>
