<svg width="20" height="21" viewBox="0 0 20 21" fill="none" xmlns="http://www.w3.org/2000/svg">
<path fill-rule="evenodd" clip-rule="evenodd" d="M17.4361 10.1044C17.4192 10.1042 17.397 10.1042 17.3609 10.1042H15.1921C14.006 10.1042 13.1248 10.9864 13.1248 11.9792C13.1248 12.9719 14.006 13.8542 15.1921 13.8542H17.3609C17.397 13.8542 17.4192 13.8542 17.4361 13.854C17.4521 13.8538 17.4565 13.8535 17.4565 13.8535C17.6282 13.8431 17.7021 13.7272 17.7077 13.6574C17.7077 13.6574 17.7079 13.6522 17.708 13.6446C17.7082 13.6299 17.7082 13.6101 17.7082 13.5764V10.3819C17.7082 10.3633 17.7082 10.3489 17.7081 10.3373C17.7081 10.3279 17.7081 10.3203 17.708 10.3137C17.7079 10.3061 17.7077 10.3009 17.7077 10.3009C17.7021 10.2312 17.6282 10.1152 17.4565 10.1048C17.4565 10.1048 17.4523 10.1045 17.4361 10.1044ZM17.3748 8.85416C17.4301 8.85414 17.4834 8.85412 17.5324 8.8571C18.2585 8.9013 18.9007 9.449 18.9547 10.214C18.9582 10.2642 18.9582 10.3182 18.9582 10.3683C18.9582 10.3729 18.9582 10.3774 18.9582 10.3819V13.5764C18.9582 13.5809 18.9582 13.5854 18.9582 13.59C18.9582 13.6401 18.9582 13.6942 18.9547 13.7443C18.9007 14.5093 18.2585 15.057 17.5324 15.1012C17.4834 15.1042 17.4301 15.1042 17.3747 15.1042C17.3702 15.1042 17.3656 15.1042 17.3609 15.1042H15.1921C13.4045 15.1042 11.8748 13.7479 11.8748 11.9792C11.8748 10.2105 13.4045 8.85417 15.1921 8.85417H17.3609C17.3656 8.85417 17.3702 8.85416 17.3748 8.85416Z" fill="black"/>
<path d="M15.8332 11.9792C15.8332 12.4394 15.4601 12.8125 14.9998 12.8125C14.5396 12.8125 14.1665 12.4394 14.1665 11.9792C14.1665 11.5189 14.5396 11.1458 14.9998 11.1458C15.4601 11.1458 15.8332 11.5189 15.8332 11.9792Z" fill="black"/>
<path fill-rule="evenodd" clip-rule="evenodd" d="M17.3748 8.85416C17.4301 8.85414 17.4834 8.85412 17.5324 8.8571C17.7203 8.86854 17.9025 8.91368 18.0704 8.98756C17.9813 7.64886 17.7358 6.61719 16.9655 5.84687C16.3418 5.22323 15.551 4.94647 14.574 4.81511L14.5388 4.81045C14.53 4.80397 14.5211 4.79769 14.5119 4.7916L11.399 2.72755C10.313 2.00748 8.85332 2.00748 7.76735 2.72755L4.65445 4.7916C4.64528 4.79769 4.63631 4.80397 4.62756 4.81045L4.59232 4.81511C3.6153 4.94647 2.82451 5.22323 2.20087 5.84687C1.57724 6.4705 1.30047 7.2613 1.16912 8.23831C1.04148 9.18766 1.04149 10.4007 1.0415 11.9322V12.0262C1.04149 13.5576 1.04148 14.7707 1.16912 15.72C1.30047 16.697 1.57724 17.4878 2.20087 18.1115C2.82451 18.7351 3.6153 19.0119 4.59232 19.1432C5.54166 19.2709 6.75469 19.2708 8.28616 19.2708H10.8802C12.4116 19.2708 13.6247 19.2709 14.574 19.1432C15.551 19.0119 16.3418 18.7351 16.9655 18.1115C17.7358 17.3411 17.9813 16.3095 18.0704 14.9708C17.9025 15.0447 17.7203 15.0898 17.5324 15.1012C17.4834 15.1042 17.4301 15.1042 17.3747 15.1042L17.3609 15.1042H16.8064C16.7116 16.222 16.497 16.8121 16.0816 17.2276C15.7289 17.5803 15.2459 17.7916 14.4075 17.9044C13.5511 18.0195 12.4222 18.0208 10.8332 18.0208H8.33317C6.74415 18.0208 5.61527 18.0195 4.75888 17.9044C3.92047 17.7916 3.43743 17.5803 3.08476 17.2276C2.73208 16.8749 2.52069 16.3919 2.40797 15.5535C2.29283 14.6971 2.2915 13.5682 2.2915 11.9792C2.2915 10.3901 2.29283 9.26126 2.40797 8.40487C2.52069 7.56647 2.73208 7.08343 3.08476 6.73075C3.43743 6.37808 3.92047 6.16669 4.75888 6.05397C5.61526 5.93883 6.74415 5.9375 8.33317 5.9375H10.8332C12.4222 5.9375 13.5511 5.93883 14.4075 6.05396C15.2459 6.16669 15.7289 6.37808 16.0816 6.73075C16.497 7.14619 16.7116 7.73629 16.8064 8.85417H17.3609L17.3748 8.85416ZM8.28616 4.6875H10.8802C11.3106 4.6875 11.7159 4.68749 12.0972 4.69032L10.7082 3.76934C10.0409 3.32689 9.12542 3.32689 8.45813 3.76934L7.06915 4.69032C7.45048 4.68749 7.85574 4.6875 8.28616 4.6875Z" fill="black"/>
<path d="M4.99984 8.02083C4.65466 8.02083 4.37484 8.30065 4.37484 8.64583C4.37484 8.99101 4.65466 9.27083 4.99984 9.27083H8.33317C8.67835 9.27083 8.95817 8.99101 8.95817 8.64583C8.95817 8.30065 8.67835 8.02083 8.33317 8.02083H4.99984Z" fill="black"/>
<path fill-rule="evenodd" clip-rule="evenodd" d="M15.8332 11.9792C15.8332 12.4394 15.4601 12.8125 14.9998 12.8125C14.5396 12.8125 14.1665 12.4394 14.1665 11.9792C14.1665 11.5189 14.5396 11.1458 14.9998 11.1458C15.4601 11.1458 15.8332 11.5189 15.8332 11.9792Z" fill="black"/>
</svg>
