<svg width="20" height="21" viewBox="0 0 20 21" fill="none" xmlns="http://www.w3.org/2000/svg">
<path fill-rule="evenodd" clip-rule="evenodd" d="M17.4361 10.4169C17.4192 10.4167 17.397 10.4167 17.3609 10.4167H15.1921C14.006 10.4167 13.1248 11.2989 13.1248 12.2917C13.1248 13.2844 14.006 14.1667 15.1921 14.1667H17.3609C17.397 14.1667 17.4192 14.1667 17.4361 14.1665C17.4521 14.1663 17.4565 14.166 17.4565 14.166C17.6282 14.1556 17.7021 14.0397 17.7077 13.9699C17.7077 13.9699 17.7079 13.9647 17.708 13.9571C17.7082 13.9424 17.7082 13.9226 17.7082 13.8889V10.6944C17.7082 10.6758 17.7082 10.6614 17.7081 10.6498C17.7081 10.6404 17.7081 10.6328 17.708 10.6262C17.7079 10.6186 17.7077 10.6134 17.7077 10.6134C17.7021 10.5437 17.6282 10.4277 17.4565 10.4173C17.4565 10.4173 17.4523 10.417 17.4361 10.4169ZM17.3748 9.16666C17.4301 9.16664 17.4834 9.16662 17.5324 9.1696C18.2585 9.2138 18.9007 9.7615 18.9547 10.5265C18.9582 10.5767 18.9582 10.6307 18.9582 10.6808C18.9582 10.6854 18.9582 10.6899 18.9582 10.6944V13.8889C18.9582 13.8934 18.9582 13.8979 18.9582 13.9025C18.9582 13.9526 18.9582 14.0067 18.9547 14.0568C18.9007 14.8218 18.2585 15.3695 17.5324 15.4137C17.4834 15.4167 17.4301 15.4167 17.3747 15.4167C17.3702 15.4167 17.3656 15.4167 17.3609 15.4167H15.1921C13.4045 15.4167 11.8748 14.0604 11.8748 12.2917C11.8748 10.523 13.4045 9.16667 15.1921 9.16667H17.3609C17.3656 9.16667 17.3702 9.16666 17.3748 9.16666Z" fill="white"/>
<path d="M15.8332 12.2917C15.8332 12.7519 15.4601 13.125 14.9998 13.125C14.5396 13.125 14.1665 12.7519 14.1665 12.2917C14.1665 11.8314 14.5396 11.4583 14.9998 11.4583C15.4601 11.4583 15.8332 11.8314 15.8332 12.2917Z" fill="white"/>
<path fill-rule="evenodd" clip-rule="evenodd" d="M17.3748 9.16666C17.4301 9.16664 17.4834 9.16662 17.5324 9.1696C17.7203 9.18104 17.9025 9.22618 18.0704 9.30006C17.9813 7.96136 17.7358 6.92969 16.9655 6.15937C16.3418 5.53573 15.551 5.25897 14.574 5.12761L14.5388 5.12295C14.53 5.11647 14.5211 5.11019 14.5119 5.1041L11.399 3.04005C10.313 2.31998 8.85332 2.31998 7.76735 3.04005L4.65445 5.1041C4.64528 5.11019 4.63631 5.11647 4.62756 5.12295L4.59232 5.12761C3.6153 5.25897 2.82451 5.53573 2.20087 6.15937C1.57724 6.783 1.30047 7.5738 1.16912 8.55081C1.04148 9.50016 1.04149 10.7132 1.0415 12.2447V12.3387C1.04149 13.8701 1.04148 15.0832 1.16912 16.0325C1.30047 17.0095 1.57724 17.8003 2.20087 18.424C2.82451 19.0476 3.6153 19.3244 4.59232 19.4557C5.54166 19.5834 6.75469 19.5833 8.28616 19.5833H10.8802C12.4116 19.5833 13.6247 19.5834 14.574 19.4557C15.551 19.3244 16.3418 19.0476 16.9655 18.424C17.7358 17.6536 17.9813 16.622 18.0704 15.2833C17.9025 15.3572 17.7203 15.4023 17.5324 15.4137C17.4834 15.4167 17.4301 15.4167 17.3747 15.4167L17.3609 15.4167H16.8064C16.7116 16.5345 16.497 17.1246 16.0816 17.5401C15.7289 17.8928 15.2459 18.1041 14.4075 18.2169C13.5511 18.332 12.4222 18.3333 10.8332 18.3333H8.33317C6.74415 18.3333 5.61527 18.332 4.75888 18.2169C3.92047 18.1041 3.43743 17.8928 3.08476 17.5401C2.73208 17.1874 2.52069 16.7044 2.40797 15.866C2.29283 15.0096 2.2915 13.8807 2.2915 12.2917C2.2915 10.7026 2.29283 9.57376 2.40797 8.71737C2.52069 7.87897 2.73208 7.39593 3.08476 7.04325C3.43743 6.69058 3.92047 6.47919 4.75888 6.36647C5.61526 6.25133 6.74415 6.25 8.33317 6.25H10.8332C12.4222 6.25 13.5511 6.25133 14.4075 6.36646C15.2459 6.47919 15.7289 6.69058 16.0816 7.04325C16.497 7.45869 16.7116 8.04879 16.8064 9.16667H17.3609L17.3748 9.16666ZM8.28616 5H10.8802C11.3106 5 11.7159 4.99999 12.0972 5.00282L10.7082 4.08184C10.0409 3.63939 9.12542 3.63939 8.45813 4.08184L7.06915 5.00282C7.45048 4.99999 7.85574 5 8.28616 5Z" fill="white"/>
<path d="M4.99984 8.33333C4.65466 8.33333 4.37484 8.61315 4.37484 8.95833C4.37484 9.30351 4.65466 9.58333 4.99984 9.58333H8.33317C8.67835 9.58333 8.95817 9.30351 8.95817 8.95833C8.95817 8.61315 8.67835 8.33333 8.33317 8.33333H4.99984Z" fill="white"/>
<path fill-rule="evenodd" clip-rule="evenodd" d="M15.8332 12.2917C15.8332 12.7519 15.4601 13.125 14.9998 13.125C14.5396 13.125 14.1665 12.7519 14.1665 12.2917C14.1665 11.8314 14.5396 11.4583 14.9998 11.4583C15.4601 11.4583 15.8332 11.8314 15.8332 12.2917Z" fill="white"/>
</svg>
