<svg width="21" height="21" viewBox="0 0 21 21" fill="none" xmlns="http://www.w3.org/2000/svg">
<path fill-rule="evenodd" clip-rule="evenodd" d="M12.0196 2.67143C11.9651 2.66506 11.91 2.66506 11.8555 2.67143C11.7879 2.67933 11.6871 2.71053 11.4863 2.86984C11.2752 3.03736 11.0219 3.2893 10.6346 3.67657C10.2473 4.06384 9.99538 4.31715 9.82786 4.52828C9.66855 4.72907 9.63735 4.82985 9.62945 4.89745C9.62308 4.95197 9.62308 5.00706 9.62945 5.06158C9.63735 5.12918 9.66855 5.22996 9.82786 5.43075C9.99538 5.64188 10.2473 5.8952 10.6346 6.28246L14.7589 10.4067C15.1461 10.794 15.3995 11.046 15.6106 11.2135C15.8114 11.3728 15.9121 11.404 15.9797 11.4119C16.0343 11.4182 16.0894 11.4182 16.1439 11.4119C16.2115 11.404 16.3123 11.3728 16.513 11.2135C16.7242 11.046 16.9775 10.794 17.3648 10.4067C17.752 10.0195 18.004 9.76616 18.1715 9.55503C18.3308 9.35424 18.362 9.25346 18.3699 9.18587C18.3763 9.13134 18.3763 9.07626 18.3699 9.02173C18.362 8.95413 18.3308 8.85335 18.1715 8.65257C18.004 8.44143 17.752 8.18812 17.3648 7.80085L13.2405 3.67657C12.8532 3.2893 12.5999 3.03736 12.3888 2.86984C12.188 2.71053 12.0872 2.67933 12.0196 2.67143ZM11.7105 1.42987C11.8613 1.41225 12.0137 1.41225 12.1646 1.42987C12.5571 1.47571 12.8747 1.65975 13.1657 1.89062C13.44 2.10823 13.744 2.4123 14.0995 2.76785L18.2735 6.94183C18.629 7.29734 18.9331 7.60137 19.1507 7.87563C19.3816 8.16661 19.5656 8.48424 19.6115 8.87672C19.6291 9.02759 19.6291 9.18 19.6115 9.33088C19.5656 9.72336 19.3816 10.041 19.1507 10.332C18.9331 10.6062 18.629 10.9103 18.2735 11.2658L18.2238 11.3155C17.8683 11.671 17.5643 11.9751 17.29 12.1927C16.999 12.4236 16.6814 12.6076 16.2889 12.6534C16.138 12.6711 15.9856 12.6711 15.8347 12.6534C15.4423 12.6076 15.1246 12.4236 14.8336 12.1927C14.5594 11.9751 14.2553 11.671 13.8998 11.3155L13.3904 10.806L11.0973 13.099L11.6068 13.6085C11.9624 13.964 12.2664 14.268 12.484 14.5423C12.7149 14.8333 12.899 15.1509 12.9448 15.5434C12.9624 15.6943 12.9624 15.8467 12.9448 15.9975C12.899 16.39 12.7149 16.7077 12.484 16.9986C12.2664 17.2729 11.9623 17.577 11.6068 17.9325L11.5572 17.9821C11.2016 18.3377 10.8976 18.6417 10.6233 18.8594C10.3323 19.0902 10.0147 19.2743 9.62223 19.3201C9.47135 19.3377 9.31894 19.3377 9.16807 19.3201C8.77559 19.2743 8.45796 19.0902 8.16698 18.8594C7.89271 18.6417 7.58867 18.3377 7.23315 17.9821L3.05921 13.8082C2.70366 13.4527 2.39959 13.1486 2.18197 12.8744C1.9511 12.5834 1.76706 12.2657 1.72122 11.8733C1.7036 11.7224 1.7036 11.57 1.72122 11.4191C1.76706 11.0266 1.9511 10.709 2.18197 10.418C2.39958 10.1437 2.70365 9.83971 3.05919 9.48419L3.10888 9.4345C3.4644 9.07896 3.76843 8.7749 4.0427 8.55729C4.33368 8.32642 4.65131 8.14238 5.04379 8.09654C5.19466 8.07892 5.34707 8.07892 5.49795 8.09654C5.89042 8.14238 6.20806 8.32642 6.49904 8.55729C6.7733 8.7749 7.07734 9.07896 7.43285 9.4345L7.62679 9.62844L9.91979 7.33543L9.72586 7.14151C9.37032 6.78599 9.06625 6.48195 8.84864 6.20769C8.61777 5.91671 8.43373 5.59907 8.38789 5.20659C8.37027 5.05572 8.37027 4.90331 8.38789 4.75244C8.43373 4.35996 8.61777 4.04233 8.84864 3.75135C9.06625 3.47708 9.37031 3.17304 9.72585 2.81753L9.77554 2.76784C10.1311 2.4123 10.4351 2.10823 10.7094 1.89062C11.0003 1.65975 11.318 1.47571 11.7105 1.42987ZM10.8037 8.21932L8.51067 10.5123L10.2135 12.2151L12.5065 9.92211L10.8037 8.21932ZM15.2401 2.01496C15.4841 1.77088 15.8799 1.77088 16.1239 2.01496L18.7106 4.60163C18.9547 4.84571 18.9547 5.24144 18.7106 5.48552C18.4665 5.72959 18.0708 5.72959 17.8267 5.48552L15.2401 2.89884C14.996 2.65476 14.996 2.25903 15.2401 2.01496ZM5.35294 9.3381C5.29841 9.33173 5.24332 9.33173 5.1888 9.3381C5.1212 9.34599 5.02042 9.3772 4.81964 9.53651C4.6085 9.70402 4.35519 9.95597 3.96792 10.3432C3.58065 10.7305 3.32871 10.9838 3.16119 11.195C3.00188 11.3957 2.97068 11.4965 2.96278 11.5641C2.95642 11.6186 2.95642 11.6737 2.96278 11.7283C2.97068 11.7958 3.00188 11.8966 3.16119 12.0974C3.32871 12.3085 3.58065 12.5619 3.96792 12.9491L8.0922 17.0734C8.47947 17.4607 8.73279 17.7126 8.94392 17.8801C9.1447 18.0394 9.24548 18.0707 9.31308 18.0785C9.36761 18.0849 9.42269 18.0849 9.47722 18.0785C9.54482 18.0707 9.64559 18.0394 9.84638 17.8801C10.0575 17.7126 10.3108 17.4607 10.6981 17.0734C11.0854 16.6861 11.3373 16.4328 11.5048 16.2217C11.6641 16.0209 11.6953 15.9201 11.7032 15.8525C11.7096 15.798 11.7096 15.7429 11.7032 15.6884C11.6953 15.6208 11.6641 15.52 11.5048 15.3192C11.3373 15.1081 11.0854 14.8548 10.6981 14.4675L6.57381 10.3432C6.18654 9.95597 5.93323 9.70403 5.7221 9.53651C5.52131 9.3772 5.42053 9.34599 5.35294 9.3381ZM2.3057 14.9482C2.54978 14.7041 2.9455 14.7041 3.18958 14.9482L5.77626 17.5349C6.02033 17.779 6.02033 18.1747 5.77626 18.4188C5.53218 18.6628 5.13645 18.6628 4.89237 18.4188L2.3057 15.8321C2.06162 15.588 2.06162 15.1923 2.3057 14.9482Z" fill="black"/>
</svg>
