<svg width="21" height="20" viewBox="0 0 21 20" fill="none" xmlns="http://www.w3.org/2000/svg">
<path fill-rule="evenodd" clip-rule="evenodd" d="M9.10849 1.22471C9.35257 1.46879 9.35257 1.86452 9.10849 2.1086C8.89233 2.32476 8.89233 2.67522 9.10849 2.89138C9.81281 3.5957 9.81281 4.73762 9.10849 5.44193C8.86441 5.68601 8.46868 5.68601 8.22461 5.44193C7.98053 5.19785 7.98053 4.80213 8.22461 4.55805C8.44077 4.34189 8.44077 3.99142 8.22461 3.77526C7.52029 3.07095 7.52029 1.92903 8.22461 1.22471C8.46868 0.980637 8.86441 0.980637 9.10849 1.22471ZM5.35836 2.47471C5.60244 2.71879 5.60244 3.11452 5.35836 3.3586L5.2616 3.45536C5.05889 3.65807 5.03609 3.97899 5.20809 4.20832C5.75333 4.93531 5.68103 5.95259 5.03846 6.59517L4.9417 6.69193C4.69762 6.93601 4.30189 6.93601 4.05781 6.69193C3.81374 6.44785 3.81374 6.05213 4.05781 5.80805L4.15458 5.71128C4.35729 5.50858 4.38009 5.18766 4.20809 4.95832C3.66285 4.23133 3.73514 3.21405 4.37772 2.57148L4.47448 2.47471C4.71856 2.23064 5.11429 2.23064 5.35836 2.47471ZM13.275 2.47471C13.5191 2.71879 13.5191 3.11452 13.275 3.3586L13.1783 3.45536C12.9756 3.65807 12.9528 3.97899 13.1248 4.20832C13.67 4.93531 13.5977 5.95259 12.9551 6.59517L12.8584 6.69193C12.6143 6.93601 12.2186 6.93601 11.9745 6.69193C11.7304 6.44785 11.7304 6.05213 11.9745 5.80805L12.0712 5.71128C12.274 5.50858 12.2968 5.18766 12.1248 4.95832C11.5795 4.23133 11.6518 3.21405 12.2944 2.57148L12.3911 2.47471C12.6352 2.23064 13.031 2.23064 13.275 2.47471ZM4.20593 7.70831C4.22475 7.70831 4.24384 7.70832 4.26321 7.70832H13.0696C13.089 7.70832 13.1081 7.70831 13.1269 7.70831C13.4291 7.70817 13.661 7.70807 13.8614 7.74371C14.4128 7.84174 14.8907 8.13282 15.228 8.54166H16.1664C17.8923 8.54166 19.2914 9.94077 19.2914 11.6667C19.2914 13.3925 17.8923 14.7917 16.1664 14.7917H15.0395C14.6745 15.7332 14.0403 16.5581 13.2027 17.1553C12.3181 17.786 11.2587 18.125 10.1722 18.125H7.16064C6.07418 18.125 5.01478 17.786 4.13014 17.1553C2.92947 16.2993 2.14684 14.9754 1.97565 13.5107L1.64175 10.654C1.6395 10.6348 1.63728 10.6158 1.63509 10.5971C1.59987 10.297 1.57285 10.0667 1.58498 9.86348C1.64809 8.80574 2.42815 7.92919 3.47142 7.74371C3.67187 7.70807 3.90371 7.70817 4.20593 7.70831ZM14.0567 13.7259C13.9442 13.8389 13.8748 13.9947 13.8748 14.1667C13.8748 14.2126 13.8797 14.2573 13.8891 14.3004C13.614 15.0329 13.1258 15.675 12.4771 16.1375C11.8042 16.6172 10.9985 16.875 10.1722 16.875H7.16064C6.33433 16.875 5.52861 16.6172 4.85579 16.1375C3.94262 15.4864 3.3474 14.4795 3.2172 13.3656L2.8833 10.5089C2.83845 10.1252 2.82813 10.0156 2.83276 9.93794C2.86145 9.45715 3.21602 9.05872 3.69023 8.97441C3.76678 8.9608 3.87685 8.95832 4.26321 8.95832H13.0696C13.456 8.95832 13.5661 8.9608 13.6426 8.97441C14.1168 9.05872 14.4714 9.45715 14.5001 9.93794C14.5047 10.0156 14.4944 10.1252 14.4495 10.5089L14.1156 13.3656C14.1014 13.4871 14.0817 13.6073 14.0567 13.7259ZM15.3535 13.5417H16.1664C17.202 13.5417 18.0414 12.7022 18.0414 11.6667C18.0414 10.6311 17.202 9.79166 16.1664 9.79166H15.7425C15.7446 9.8155 15.7464 9.83944 15.7479 9.86348C15.76 10.0667 15.733 10.297 15.6978 10.5971C15.6956 10.6158 15.6933 10.6348 15.6911 10.654L15.3572 13.5107C15.356 13.5211 15.3548 13.5314 15.3535 13.5417Z" fill="black"/>
</svg>
