<svg width="20" height="21" viewBox="0 0 20 21" fill="none" xmlns="http://www.w3.org/2000/svg">
<path fill-rule="evenodd" clip-rule="evenodd" d="M9.96878 1.29166H10.0309C10.9392 1.29165 11.6643 1.29164 12.2476 1.34587C12.8468 1.40157 13.3581 1.51856 13.8183 1.7911C14.37 2.11778 14.8262 2.58648 15.1426 3.14853C15.4053 3.61527 15.5182 4.13334 15.5722 4.74379C15.6249 5.33991 15.6249 6.08176 15.6249 7.01512V7.33206C15.9144 7.19929 16.2362 7.12499 16.5788 7.12499C17.9303 7.12499 18.9582 8.28125 18.9582 9.62134V13.4643C18.9582 13.4937 18.9582 13.5227 18.9582 13.5513C18.9583 14.3533 18.9584 14.8574 18.866 15.2892C18.5832 16.6109 17.6761 17.6954 16.4582 18.1489V18.5833C16.4582 18.9285 16.1784 19.2083 15.8332 19.2083C15.488 19.2083 15.2082 18.9285 15.2082 18.5833V18.368C14.9762 18.3751 14.7139 18.3751 14.408 18.375C14.3775 18.375 14.3466 18.375 14.3153 18.375H5.68438C5.65306 18.375 5.62219 18.375 5.59174 18.375C4.85672 18.3752 4.37329 18.3753 3.95819 18.2761V18.5833C3.95819 18.9285 3.67836 19.2083 3.33319 19.2083C2.98801 19.2083 2.70819 18.9285 2.70819 18.5833V17.75C2.70819 17.7364 2.70862 17.7229 2.70948 17.7095C1.91785 17.1516 1.34747 16.2882 1.13371 15.2892C1.04133 14.8574 1.0414 14.3533 1.04151 13.5513C1.04152 13.5227 1.04152 13.4937 1.04152 13.4643V9.62134C1.04152 8.28125 2.06942 7.12499 3.42091 7.12499C3.76351 7.12499 4.08531 7.19929 4.37485 7.33206V7.0151C4.37485 6.08175 4.37484 5.33991 4.42752 4.74379C4.48146 4.13334 4.59441 3.61527 4.85714 3.14853C5.17353 2.58648 5.62971 2.11778 6.1814 1.7911C6.64165 1.51856 7.15293 1.40157 7.7521 1.34587C8.33543 1.29164 9.06051 1.29165 9.96878 1.29166ZM5.5842 8.58332C5.72346 8.90234 5.80029 9.25497 5.80029 9.62134V13.2361H14.1994V9.62134C14.1994 9.25497 14.2762 8.90234 14.4155 8.58332H14.3749V7.04486C14.3749 6.07506 14.3743 5.38846 14.327 4.85382C14.2805 4.32719 14.1925 4.00897 14.0533 3.7617C13.8431 3.38825 13.5418 3.0801 13.1814 2.86667C12.9455 2.72698 12.6414 2.63786 12.1319 2.5905C11.6132 2.54229 10.9463 2.54166 9.99985 2.54166C9.05344 2.54166 8.38649 2.54229 7.8678 2.5905C7.35831 2.63786 7.05421 2.72698 6.81831 2.86667C6.45788 3.0801 6.15664 3.38825 5.94642 3.7617C5.80722 4.00897 5.7192 4.32719 5.67267 4.85382C5.62542 5.38846 5.62485 6.07506 5.62485 7.04486V8.58332H5.5842ZM3.42091 8.37499C2.83455 8.37499 2.29152 8.89439 2.29152 9.62134V13.4643C2.29152 14.3819 2.29501 14.7424 2.35604 15.0276C2.57676 16.0592 3.32396 16.8352 4.24399 17.0592C4.49607 17.1205 4.81795 17.125 5.68438 17.125H14.3153C15.1818 17.125 15.5036 17.1205 15.7557 17.0592C16.6758 16.8352 17.4229 16.0592 17.6437 15.0276C17.7047 14.7424 17.7082 14.3819 17.7082 13.4643V9.62134C17.7082 8.89439 17.1652 8.37499 16.5788 8.37499C15.9924 8.37499 15.4494 8.89439 15.4494 9.62134V13.8611C15.4494 14.2063 15.1696 14.4861 14.8244 14.4861H5.17529C4.83011 14.4861 4.55029 14.2063 4.55029 13.8611V9.62134C4.55029 8.89439 4.00726 8.37499 3.42091 8.37499Z" fill="black"/>
</svg>
