<svg width="20" height="21" viewBox="0 0 20 21" fill="none" xmlns="http://www.w3.org/2000/svg">
<path fill-rule="evenodd" clip-rule="evenodd" d="M9.99984 1.54166C10.345 1.54166 10.6248 1.82148 10.6248 2.16666V3.83332C10.6248 4.1785 10.345 4.45832 9.99984 4.45832C9.65466 4.45832 9.37484 4.1785 9.37484 3.83332V2.16666C9.37484 1.82148 9.65466 1.54166 9.99984 1.54166ZM15.4419 5.05795C15.686 5.30203 15.686 5.69776 15.4419 5.94183L15.1558 6.22789C14.9117 6.47196 14.516 6.47196 14.2719 6.22789C14.0279 5.98381 14.0279 5.58808 14.2719 5.344L14.558 5.05795C14.8021 4.81387 15.1978 4.81387 15.4419 5.05795ZM4.5579 5.05805C4.80197 4.81397 5.1977 4.81397 5.44178 5.05805L5.72783 5.3441C5.97191 5.58818 5.97191 5.98391 5.72783 6.22798C5.48375 6.47206 5.08802 6.47206 4.84395 6.22798L4.5579 5.94193C4.31382 5.69785 4.31382 5.30213 4.5579 5.05805ZM9.95293 7.06836C9.80607 7.26012 9.63363 7.56614 9.35957 8.05779L9.22302 8.30274C9.21295 8.32081 9.20275 8.33927 9.19238 8.35805C9.07633 8.56818 8.93877 8.81726 8.71313 8.98855C8.48378 9.16266 8.20652 9.22416 7.97882 9.27467C7.95859 9.27915 7.93876 9.28355 7.91938 9.28793L7.65424 9.34793C7.12057 9.46867 6.79324 9.54457 6.57725 9.62969C6.53092 9.64794 6.4981 9.66343 6.47531 9.6756C6.48754 9.70268 6.50788 9.7415 6.54135 9.79467C6.67054 9.99989 6.89545 10.2654 7.25821 10.6896L7.43897 10.901C7.45207 10.9163 7.46544 10.9318 7.479 10.9475C7.63607 11.1299 7.81887 11.3421 7.90326 11.6134C7.98686 11.8823 7.95883 12.1615 7.93437 12.4051C7.93225 12.4262 7.93016 12.447 7.92817 12.4676L7.90084 12.7496C7.84608 13.3147 7.81315 13.6703 7.82419 13.9181C7.82632 13.966 7.8299 14.0028 7.83379 14.0308C7.85367 14.0265 7.87771 14.0205 7.90645 14.0123C8.12905 13.9485 8.43691 13.8087 8.93664 13.5786L9.1849 13.4643C9.20322 13.4559 9.22197 13.4471 9.24112 13.4382C9.45215 13.3399 9.7123 13.2187 9.99984 13.2187C10.2874 13.2187 10.5475 13.3399 10.7586 13.4382C10.7777 13.4471 10.7965 13.4559 10.8148 13.4643L11.063 13.5786C11.5628 13.8087 11.8706 13.9485 12.0932 14.0123C12.122 14.0205 12.146 14.0265 12.1659 14.0308C12.1698 14.0028 12.1733 13.966 12.1755 13.9181C12.1865 13.6703 12.1536 13.3147 12.0988 12.7496L12.0715 12.4676C12.0695 12.447 12.0674 12.4262 12.0653 12.4051C12.0408 12.1615 12.0128 11.8823 12.0964 11.6134C12.1808 11.3421 12.3636 11.1299 12.5207 10.9475C12.5342 10.9318 12.5476 10.9163 12.5607 10.901L12.7415 10.6896C13.1042 10.2654 13.3291 9.99989 13.4583 9.79467C13.4918 9.7415 13.5121 9.70268 13.5244 9.6756C13.5016 9.66343 13.4687 9.64794 13.4224 9.62969C13.2064 9.54457 12.8791 9.46867 12.3454 9.34793L12.0803 9.28793C12.0609 9.28355 12.0411 9.27915 12.0209 9.27466C11.7932 9.22416 11.5159 9.16266 11.2865 8.98855C11.0609 8.81726 10.9233 8.56818 10.8073 8.35804C10.7969 8.33927 10.7867 8.3208 10.7766 8.30273L10.6401 8.05779C10.366 7.56614 10.1936 7.26012 10.0467 7.06836C10.029 7.04523 10.0134 7.02608 9.99984 7.01029C9.98625 7.02608 9.97064 7.04523 9.95293 7.06836ZM13.571 9.70649C13.5706 9.70654 13.5682 9.70465 13.5649 9.70066C13.5697 9.70443 13.5714 9.70643 13.571 9.70649ZM13.5408 9.63163C13.541 9.62673 13.5416 9.62397 13.5419 9.62381C13.5422 9.62365 13.5422 9.6261 13.5408 9.63163ZM12.1476 14.109C12.1475 14.1088 12.1483 14.1067 12.1502 14.1034C12.1487 14.1075 12.1477 14.1092 12.1476 14.109ZM12.2408 14.0418C12.2451 14.0412 12.2476 14.0412 12.2478 14.0414C12.248 14.0416 12.2458 14.0419 12.2408 14.0418ZM7.75185 14.0414C7.75203 14.0412 7.75456 14.0412 7.75892 14.0418C7.75386 14.0419 7.75168 14.0416 7.75185 14.0414ZM7.84943 14.1034C7.85137 14.1067 7.85214 14.1088 7.85203 14.109C7.85193 14.1092 7.85096 14.1075 7.84943 14.1034ZM6.45773 9.62381C6.45803 9.62397 6.45871 9.62673 6.45887 9.63163C6.45751 9.6261 6.45742 9.62365 6.45773 9.62381ZM6.43481 9.70066C6.43145 9.70466 6.42903 9.70654 6.42866 9.70649C6.42829 9.70643 6.42997 9.70444 6.43481 9.70066ZM8.9605 6.30836C9.17648 6.02634 9.50285 5.70832 9.99984 5.70832C10.4968 5.70832 10.8232 6.02634 11.0392 6.30836C11.2484 6.58159 11.4649 6.97007 11.7093 7.40861L11.8685 7.69411C11.9481 7.83696 11.9909 7.91283 12.0263 7.96609C12.0334 7.97669 12.0389 7.98448 12.043 7.99003C12.0483 7.99192 12.0551 7.99427 12.0639 7.99705C12.1209 8.01503 12.2008 8.03359 12.3561 8.06875L12.6675 8.13919C13.1401 8.24608 13.5641 8.34195 13.8807 8.46674C14.2194 8.60021 14.5948 8.82762 14.7394 9.29262C14.8819 9.7508 14.7101 10.1525 14.5162 10.4606C14.3321 10.753 14.045 11.0886 13.7212 11.4672L13.5107 11.7134C13.4052 11.8367 13.3497 11.9023 13.3124 11.9537C13.3012 11.9691 13.2946 11.9793 13.2909 11.9854C13.2904 11.993 13.2898 12.0066 13.2903 12.0283C13.2916 12.0943 13.2998 12.1829 13.3157 12.347L13.3474 12.6741C13.3965 13.1804 13.4397 13.6262 13.4242 13.9738C13.4083 14.3326 13.3246 14.7712 12.9381 15.0646C12.5414 15.3657 12.0939 15.3128 11.7489 15.2139C11.4226 15.1204 11.026 14.9378 10.5836 14.734L10.5402 14.714L10.292 14.5997C10.1465 14.5327 10.0712 14.4986 10.0148 14.4781C10.009 14.476 10.004 14.4742 9.99984 14.4728C9.99562 14.4742 9.99066 14.476 9.98489 14.4781C9.92845 14.4986 9.85313 14.5327 9.70768 14.5997L9.41603 14.734C8.97365 14.9378 8.57711 15.1204 8.25076 15.2139C7.90574 15.3128 7.45826 15.3657 7.06158 15.0646C6.6751 14.7712 6.59142 14.3326 6.57543 13.9738C6.55995 13.6262 6.60319 13.1804 6.6523 12.6741L6.68399 12.347C6.6999 12.1829 6.70807 12.0943 6.70939 12.0283C6.70983 12.0066 6.7093 11.993 6.70875 11.9854C6.70508 11.9793 6.69847 11.9691 6.6873 11.9537C6.64996 11.9023 6.59443 11.8367 6.48897 11.7134L6.27845 11.4672C5.95466 11.0886 5.66756 10.753 5.48351 10.4606C5.28958 10.1525 5.11781 9.7508 5.26029 9.29262C5.40489 8.82762 5.78024 8.60021 6.11894 8.46674C6.43559 8.34195 6.85955 8.24608 7.33221 8.13919C7.34755 8.13572 7.36294 8.13224 7.37839 8.12874L7.64353 8.06875C7.79892 8.03359 7.87874 8.01503 7.93575 7.99705C7.94455 7.99427 7.95142 7.99192 7.95664 7.99003C7.96077 7.98448 7.96631 7.97669 7.97335 7.96609C8.00877 7.91283 8.05157 7.83696 8.1312 7.69411L8.26775 7.44917C8.27531 7.4356 8.28284 7.42209 8.29035 7.40862C8.53476 6.97007 8.75126 6.58159 8.9605 6.30836ZM6.70812 11.9788C6.70792 11.9779 6.70785 11.9773 6.70786 11.9773L6.70812 11.9788ZM12.0524 8.00181C12.0525 8.00183 12.0528 8.00223 12.0524 8.00181V8.00181ZM1.0415 10.5C1.0415 10.1548 1.32133 9.87499 1.6665 9.87499H3.33317C3.67835 9.87499 3.95817 10.1548 3.95817 10.5C3.95817 10.8452 3.67835 11.125 3.33317 11.125H1.6665C1.32133 11.125 1.0415 10.8452 1.0415 10.5ZM16.0415 10.5C16.0415 10.1548 16.3213 9.87499 16.6665 9.87499H18.3332C18.6783 9.87499 18.9582 10.1548 18.9582 10.5C18.9582 10.8452 18.6783 11.125 18.3332 11.125H16.6665C16.3213 11.125 16.0415 10.8452 16.0415 10.5ZM5.72773 14.7721C5.97181 15.0162 5.97181 15.4119 5.72773 15.656L5.44186 15.9418C5.19778 16.1859 4.80206 16.1859 4.55798 15.9418C4.3139 15.6978 4.3139 15.302 4.55798 15.058L4.84385 14.7721C5.08793 14.528 5.48366 14.528 5.72773 14.7721ZM14.2719 14.7723C14.516 14.5282 14.9117 14.5282 15.1558 14.7723L15.4417 15.0581C15.6858 15.3022 15.6858 15.698 15.4417 15.942C15.1976 16.1861 14.8019 16.1861 14.5578 15.942L14.2719 15.6562C14.0278 15.4121 14.0278 15.0164 14.2719 14.7723ZM9.99984 16.5417C10.345 16.5417 10.6248 16.8215 10.6248 17.1667V18.8333C10.6248 19.1785 10.345 19.4583 9.99984 19.4583C9.65466 19.4583 9.37484 19.1785 9.37484 18.8333V17.1667C9.37484 16.8215 9.65466 16.5417 9.99984 16.5417Z" fill="white"/>
</svg>
