<svg width="20" height="21" viewBox="0 0 20 21" fill="none" xmlns="http://www.w3.org/2000/svg">
<path fill-rule="evenodd" clip-rule="evenodd" d="M5.2085 6.69792C5.2085 4.05155 7.3538 1.90625 10.0002 1.90625C12.6465 1.90625 14.7918 4.05155 14.7918 6.69792V9.19792C14.7918 11.8443 12.6465 13.9896 10.0002 13.9896C7.3538 13.9896 5.2085 11.8443 5.2085 9.19792V6.69792ZM10.0002 3.15625C8.04415 3.15625 6.4585 4.74191 6.4585 6.69792V9.19792C6.4585 11.1539 8.04415 12.7396 10.0002 12.7396C11.7429 12.7396 13.1917 11.4808 13.4869 9.82292L10.8335 9.82292C10.4883 9.82292 10.2085 9.54309 10.2085 9.19792C10.2085 8.85274 10.4883 8.57292 10.8335 8.57292L13.5418 8.57292V7.32292H10.8335C10.4883 7.32292 10.2085 7.04309 10.2085 6.69792C10.2085 6.35274 10.4883 6.07292 10.8335 6.07292H13.4869C13.1917 4.41499 11.7429 3.15625 10.0002 3.15625ZM3.3335 7.73958C3.67867 7.73958 3.9585 8.0194 3.9585 8.36458V9.19792C3.9585 12.5346 6.66344 15.2396 10.0002 15.2396C13.3369 15.2396 16.0418 12.5346 16.0418 9.19792V8.36458C16.0418 8.0194 16.3217 7.73958 16.6668 7.73958C17.012 7.73958 17.2918 8.0194 17.2918 8.36458V9.19792C17.2918 13.0145 14.3597 16.1462 10.6252 16.4632V18.3646C10.6252 18.7098 10.3453 18.9896 10.0002 18.9896C9.65498 18.9896 9.37516 18.7098 9.37516 18.3646V16.4632C5.64066 16.1462 2.7085 13.0145 2.7085 9.19792V8.36458C2.7085 8.0194 2.98832 7.73958 3.3335 7.73958Z" fill="white"/>
</svg>
