<svg width="20" height="21" viewBox="0 0 20 21" fill="none" xmlns="http://www.w3.org/2000/svg">
<path fill-rule="evenodd" clip-rule="evenodd" d="M5.2085 6.85417C5.2085 4.2078 7.3538 2.0625 10.0002 2.0625C12.6465 2.0625 14.7918 4.2078 14.7918 6.85417V9.35417C14.7918 12.0005 12.6465 14.1458 10.0002 14.1458C7.3538 14.1458 5.2085 12.0005 5.2085 9.35417V6.85417ZM10.0002 3.3125C8.04415 3.3125 6.4585 4.89816 6.4585 6.85417V9.35417C6.4585 11.3102 8.04415 12.8958 10.0002 12.8958C11.7429 12.8958 13.1917 11.6371 13.4869 9.97917L10.8335 9.97917C10.4883 9.97917 10.2085 9.69934 10.2085 9.35417C10.2085 9.00899 10.4883 8.72917 10.8335 8.72917L13.5418 8.72917V7.47917H10.8335C10.4883 7.47917 10.2085 7.19934 10.2085 6.85417C10.2085 6.50899 10.4883 6.22917 10.8335 6.22917H13.4869C13.1917 4.57124 11.7429 3.3125 10.0002 3.3125ZM3.3335 7.89583C3.67867 7.89583 3.9585 8.17565 3.9585 8.52083V9.35417C3.9585 12.6909 6.66344 15.3958 10.0002 15.3958C13.3369 15.3958 16.0418 12.6909 16.0418 9.35417V8.52083C16.0418 8.17565 16.3217 7.89583 16.6668 7.89583C17.012 7.89583 17.2918 8.17565 17.2918 8.52083V9.35417C17.2918 13.1707 14.3597 16.3024 10.6252 16.6194V18.5208C10.6252 18.866 10.3453 19.1458 10.0002 19.1458C9.65498 19.1458 9.37516 18.866 9.37516 18.5208V16.6194C5.64066 16.3024 2.7085 13.1707 2.7085 9.35417V8.52083C2.7085 8.17565 2.98832 7.89583 3.3335 7.89583Z" fill="black"/>
</svg>
