<svg width="19" height="20" viewBox="0 0 19 20" fill="none" xmlns="http://www.w3.org/2000/svg">
<path fill-rule="evenodd" clip-rule="evenodd" d="M18.088 8.07326H4.76095L17.5617 4.36507C17.6612 4.33623 17.7451 4.26894 17.7952 4.1783C17.8452 4.08751 17.8571 3.9807 17.8283 3.88121L17.1584 1.56874C16.8908 0.645126 16.0308 -1.52588e-05 15.067 -1.52588e-05C14.8639 -1.52588e-05 14.6616 0.0288238 14.4654 0.0855865L2.4468 3.56718C1.89092 3.72816 1.43026 4.09773 1.14935 4.60753C0.868584 5.11732 0.802667 5.70433 0.963647 6.26006L1.6181 8.51927V17.8261C1.6181 19.0248 2.59329 20 3.79186 20H8.48577C8.70153 20 8.8764 19.8251 8.8764 19.6094C8.8764 19.3936 8.70153 19.2187 8.48577 19.2187H3.79202C3.02404 19.2187 2.39935 18.594 2.39935 17.8261V12.5102H4.40054H4.40145H4.40222H7.4613H7.46221H7.46313H10.5222H10.5231H10.524H13.5831H13.584H13.5848H17.6974V17.8261C17.6974 18.594 17.0727 19.2187 16.3047 19.2187H11.6108C11.3952 19.2187 11.2201 19.3936 11.2201 19.6094C11.2201 19.8251 11.3952 20 11.6108 20H16.3047C17.5034 20 18.4786 19.0248 18.4786 17.8261V8.46388C18.4786 8.24812 18.3037 8.07326 18.088 8.07326ZM11.2 11.729L12.8597 8.85451H15.0184L13.3588 11.729H11.2ZM8.13909 11.729L9.79879 8.85451H11.9575L10.2979 11.729H8.13909ZM5.07833 11.729L6.73788 8.85451H8.89669L7.23699 11.729H5.07833ZM6.53066 6.67204L3.75143 4.00267L5.8338 3.39949C5.84844 3.42085 5.86553 3.44099 5.88506 3.45976L8.6643 6.12914L6.58193 6.73232C6.56729 6.71095 6.55004 6.69066 6.53066 6.67204ZM11.765 1.75642L14.5443 4.4258L12.4619 5.02898C12.4473 5.00761 12.4302 4.98732 12.4106 4.9687L9.6314 2.29933L11.7138 1.69615C11.7284 1.71751 11.7455 1.73766 11.765 1.75642ZM8.82498 2.60817L11.6042 5.27739L9.52184 5.88072C9.5072 5.85936 9.49011 5.83907 9.47058 5.82045L6.69134 3.15108L8.77371 2.5479C8.78851 2.56911 8.8056 2.5894 8.82498 2.60817ZM14.6828 0.836014C14.8083 0.799698 14.9375 0.781235 15.067 0.781235C15.6852 0.781235 16.2365 1.19444 16.408 1.78618L16.9692 3.72328L15.402 4.17723C15.3872 4.15587 15.3701 4.13573 15.3505 4.11696L12.5715 1.44774L14.6828 0.836014ZM1.8337 4.98442C2.01376 4.65742 2.30871 4.42061 2.66424 4.31761L2.89373 4.25108C2.90853 4.27245 2.92562 4.29274 2.945 4.31136L5.72424 6.98073L2.27529 7.97987L1.71407 6.04277C1.61108 5.68739 1.65365 5.31157 1.8337 4.98442ZM2.39935 8.85451H5.83578L4.17623 11.729H2.39935V8.85451ZM14.2609 11.729L15.9205 8.85451H17.6974V11.729H14.2609Z" fill="black"/>
<path fill-rule="evenodd" clip-rule="evenodd" d="M12.7492 15.8247C12.7492 15.6851 12.6748 15.5561 12.5539 15.4864L9.12207 13.5051C9.00122 13.4353 8.85229 13.4353 8.73145 13.5051C8.6106 13.5748 8.53613 13.7037 8.53613 13.8433V17.8061C8.53613 17.9455 8.6106 18.0745 8.73145 18.1442C8.79187 18.1791 8.85931 18.1967 8.92676 18.1967C8.9942 18.1967 9.06165 18.1791 9.12207 18.1442L12.5539 16.163C12.6748 16.0933 12.7492 15.9643 12.7492 15.8247ZM9.31738 17.1295V14.5199L11.5774 15.8247L9.31738 17.1295Z" fill="black"/>
<path fill-rule="evenodd" clip-rule="evenodd" d="M10.0483 19.2188C9.83319 19.2188 9.65771 19.3942 9.65771 19.6094C9.65771 19.8245 9.83319 20 10.0483 20C10.2636 20 10.439 19.8245 10.439 19.6094C10.439 19.3942 10.2636 19.2188 10.0483 19.2188Z" fill="black"/>
</svg>
