<svg width="21" height="21" viewBox="0 0 21 21" fill="none" xmlns="http://www.w3.org/2000/svg">
<path fill-rule="evenodd" clip-rule="evenodd" d="M10.1219 2.27106C10.156 2.61455 9.90524 2.92065 9.56175 2.95475C5.66715 3.34143 2.625 6.62833 2.625 10.625C2.625 14.8822 6.07614 18.3333 10.3333 18.3333C14.33 18.3333 17.6169 15.2912 18.0036 11.3966C18.0377 11.0531 18.3438 10.8023 18.6873 10.8364C19.0308 10.8705 19.2816 11.1766 19.2475 11.5201C18.7979 16.0477 14.9789 19.5833 10.3333 19.5833C5.38578 19.5833 1.375 15.5725 1.375 10.625C1.375 5.97941 4.91065 2.1604 9.43825 1.71087C9.78174 1.67676 10.0878 1.92757 10.1219 2.27106ZM12.4635 2.16911C12.6239 2.05136 12.8308 2.01702 13.0206 2.07665C15.8073 2.95191 18.0062 5.15075 18.8814 7.93748C18.9849 8.2668 18.8018 8.61761 18.4724 8.72104C18.1431 8.82448 17.7923 8.64136 17.6889 8.31204C17.0234 6.19319 15.4664 4.46774 13.4583 3.57602V10.625C13.4583 12.3509 12.0592 13.75 10.3333 13.75C8.60744 13.75 7.20833 12.3509 7.20833 10.625C7.20833 8.89911 8.60744 7.5 10.3333 7.5C11.0368 7.5 11.686 7.73246 12.2083 8.12477V2.67293C12.2083 2.47395 12.3031 2.28686 12.4635 2.16911ZM12.2083 10.625C12.2083 9.58946 11.3689 8.75 10.3333 8.75C9.2978 8.75 8.45833 9.58946 8.45833 10.625C8.45833 11.6605 9.2978 12.5 10.3333 12.5C11.3689 12.5 12.2083 11.6605 12.2083 10.625Z" fill="black"/>
</svg>
