<svg width="21" height="21" viewBox="0 0 21 21" fill="none" xmlns="http://www.w3.org/2000/svg">
<path fill-rule="evenodd" clip-rule="evenodd" d="M10.1776 2.27106C10.2117 2.61455 9.9609 2.92065 9.61741 2.95475C5.72281 3.34143 2.68066 6.62833 2.68066 10.625C2.68066 14.8822 6.1318 18.3333 10.389 18.3333C14.3857 18.3333 17.6726 15.2912 18.0592 11.3966C18.0933 11.0531 18.3994 10.8023 18.7429 10.8364C19.0864 10.8705 19.3372 11.1766 19.3031 11.5201C18.8536 16.0477 15.0346 19.5833 10.389 19.5833C5.44145 19.5833 1.43066 15.5725 1.43066 10.625C1.43066 5.97941 4.96631 2.1604 9.49391 1.71087C9.8374 1.67676 10.1435 1.92757 10.1776 2.27106ZM12.5191 2.16911C12.6796 2.05136 12.8864 2.01702 13.0763 2.07665C15.863 2.95191 18.0618 5.15075 18.9371 7.93748C19.0405 8.2668 18.8574 8.61761 18.5281 8.72104C18.1988 8.82448 17.848 8.64136 17.7445 8.31204C17.0791 6.19319 15.5221 4.46774 13.514 3.57602V10.625C13.514 12.3509 12.1149 13.75 10.389 13.75C8.66311 13.75 7.264 12.3509 7.264 10.625C7.264 8.89911 8.66311 7.5 10.389 7.5C11.0925 7.5 11.7417 7.73246 12.264 8.12477V2.67293C12.264 2.47395 12.3587 2.28686 12.5191 2.16911ZM12.264 10.625C12.264 9.58946 11.4245 8.75 10.389 8.75C9.35346 8.75 8.514 9.58946 8.514 10.625C8.514 11.6605 9.35346 12.5 10.389 12.5C11.4245 12.5 12.264 11.6605 12.264 10.625Z" fill="white"/>
</svg>
