<svg width="21" height="21" viewBox="0 0 21 21" fill="none" xmlns="http://www.w3.org/2000/svg">
<path d="M6.64237 12.9386C7.96378 10.2484 8.62449 8.90326 9.57551 8.58275C10.0677 8.41687 10.5993 8.41687 11.0915 8.58275C12.0425 8.90326 12.7032 10.2484 14.0246 12.9386L14.7569 14.4294C15.0983 15.1244 15.2689 15.4718 15.3094 15.7086C15.477 16.6908 14.7503 17.5962 13.7713 17.6247C13.5354 17.6316 13.1668 17.5306 12.4298 17.3286C12.0086 17.2131 11.798 17.1554 11.5874 17.1128C10.7596 16.9453 9.90743 16.9453 9.07961 17.1128C8.86898 17.1554 8.65839 17.2131 8.2372 17.3286C7.50016 17.5306 7.13164 17.6316 6.89565 17.6247C5.91666 17.5962 5.18996 16.6908 5.35763 15.7086C5.39805 15.4718 5.56872 15.1244 5.91007 14.4294L6.64237 12.9386Z" stroke="white" stroke-width="1.25"/>
<path d="M5.45414 4.7312C5.79732 6.09017 6.7677 6.99504 7.62155 6.75228C8.47539 6.50953 8.88937 5.21107 8.54619 3.85211C8.203 2.49314 7.23262 1.58828 6.37878 1.83103C5.52493 2.07379 5.11096 3.37224 5.45414 4.7312Z" stroke="white" stroke-width="1.25"/>
<path d="M15.2129 4.7312C14.8697 6.09017 13.8993 6.99504 13.0454 6.75228C12.1916 6.50953 11.7776 5.21107 12.1208 3.85211C12.464 2.49314 13.4344 1.58828 14.2882 1.83103C15.1421 2.07379 15.556 3.37224 15.2129 4.7312Z" stroke="white" stroke-width="1.25"/>
<path d="M2.16837 10.3726C2.54338 11.3768 3.42506 11.9867 4.13766 11.7349C4.85026 11.4831 5.12395 10.4649 4.74894 9.46073C4.37394 8.45653 3.49226 7.84659 2.77966 8.09839C2.06705 8.35019 1.79337 9.36838 2.16837 10.3726Z" stroke="white" stroke-width="1.25"/>
<path d="M18.4986 10.3726C18.1236 11.3768 17.2419 11.9867 16.5293 11.7349C15.8167 11.4831 15.543 10.4649 15.918 9.46073C16.2931 8.45653 17.1747 7.84659 17.8873 8.09839C18.5999 8.35019 18.8736 9.36838 18.4986 10.3726Z" stroke="white" stroke-width="1.25"/>
</svg>
