<svg width="20" height="21" viewBox="0 0 20 21" fill="none" xmlns="http://www.w3.org/2000/svg">
<path fill-rule="evenodd" clip-rule="evenodd" d="M12.4565 1.63544H14.2098C14.9586 1.63541 15.5829 1.63539 16.0786 1.70203C16.6017 1.77237 17.0741 1.92709 17.4536 2.30665C17.8332 2.68621 17.9879 3.15854 18.0582 3.68171C18.1249 4.17736 18.1249 4.80171 18.1248 5.55044V18.3021H18.3332C18.6783 18.3021 18.9582 18.5819 18.9582 18.9271C18.9582 19.2723 18.6783 19.5521 18.3332 19.5521H1.6665C1.32133 19.5521 1.0415 19.2723 1.0415 18.9271C1.0415 18.5819 1.32133 18.3021 1.6665 18.3021H1.87484L1.87484 8.05044C1.87481 7.30171 1.87479 6.67736 1.94143 6.18171C2.01177 5.65854 2.16649 5.18621 2.54605 4.80665C2.92561 4.42709 3.39794 4.27237 3.9211 4.20203C4.41675 4.13539 5.0411 4.13541 5.78984 4.13544L8.56483 4.13544C8.6077 3.40696 8.742 2.77737 9.21272 2.30665C9.59228 1.92709 10.0646 1.77237 10.5878 1.70203C11.0834 1.63539 11.7078 1.63541 12.4565 1.63544ZM9.1722 5.38544C9.17113 5.38544 9.17006 5.38544 9.16898 5.38544C9.16816 5.38544 9.16733 5.38544 9.1665 5.38544H5.83317C5.02983 5.38544 4.49019 5.38677 4.08766 5.44088C3.70311 5.49259 3.53853 5.58194 3.42993 5.69054C3.32134 5.79913 3.23199 5.96371 3.18028 6.34827C3.12616 6.7508 3.12484 7.29043 3.12484 8.09377V18.3021H6.87484V16.4271C6.87484 16.0819 7.15466 15.8021 7.49984 15.8021C7.84502 15.8021 8.12484 16.0819 8.12484 16.4271V18.3021H11.8748V8.09377C11.8748 7.29043 11.8735 6.7508 11.8194 6.34827C11.7677 5.96371 11.6783 5.79913 11.5697 5.69054C11.4611 5.58194 11.2966 5.49259 10.912 5.44088C10.5104 5.38689 9.9724 5.38545 9.1722 5.38544ZM13.1248 18.3021L13.1248 8.05044C13.1249 7.30171 13.1249 6.67736 13.0582 6.18171C12.9879 5.65854 12.8332 5.18621 12.4536 4.80665C12.0741 4.42709 11.6017 4.27237 11.0786 4.20203C10.7241 4.15438 10.3038 4.14081 9.8193 4.13696C9.86111 3.55393 9.95284 3.3343 10.0966 3.19054C10.2052 3.08194 10.3698 2.99259 10.7543 2.94088C11.1569 2.88677 11.6965 2.88544 12.4998 2.88544H14.1665C14.9698 2.88544 15.5095 2.88677 15.912 2.94088C16.2966 2.99259 16.4611 3.08194 16.5697 3.19054C16.6783 3.29913 16.7677 3.46371 16.8194 3.84827C16.8735 4.2508 16.8748 4.79043 16.8748 5.59377V18.3021H13.1248ZM4.37484 7.26044C4.37484 6.91526 4.65466 6.63544 4.99984 6.63544H9.99984C10.345 6.63544 10.6248 6.91526 10.6248 7.26044C10.6248 7.60562 10.345 7.88544 9.99984 7.88544H4.99984C4.65466 7.88544 4.37484 7.60562 4.37484 7.26044ZM4.37484 9.76044C4.37484 9.41526 4.65466 9.13544 4.99984 9.13544H9.99984C10.345 9.13544 10.6248 9.41526 10.6248 9.76044C10.6248 10.1056 10.345 10.3854 9.99984 10.3854H4.99984C4.65466 10.3854 4.37484 10.1056 4.37484 9.76044ZM4.37484 12.2604C4.37484 11.9153 4.65466 11.6354 4.99984 11.6354H9.99984C10.345 11.6354 10.6248 11.9153 10.6248 12.2604C10.6248 12.6056 10.345 12.8854 9.99984 12.8854H4.99984C4.65466 12.8854 4.37484 12.6056 4.37484 12.2604Z" fill="white"/>
</svg>
