<svg width="20" height="21" viewBox="0 0 20 21" fill="none" xmlns="http://www.w3.org/2000/svg">
<path fill-rule="evenodd" clip-rule="evenodd" d="M12.4565 1.79169H14.2098C14.9586 1.79166 15.5829 1.79164 16.0786 1.85828C16.6017 1.92862 17.0741 2.08334 17.4536 2.4629C17.8332 2.84246 17.9879 3.31479 18.0582 3.83796C18.1249 4.33361 18.1249 4.95796 18.1248 5.70669V18.4584H18.3332C18.6783 18.4584 18.9582 18.7382 18.9582 19.0834C18.9582 19.4285 18.6783 19.7084 18.3332 19.7084H1.6665C1.32133 19.7084 1.0415 19.4285 1.0415 19.0834C1.0415 18.7382 1.32133 18.4584 1.6665 18.4584H1.87484L1.87484 8.20669C1.87481 7.45796 1.87479 6.83361 1.94143 6.33796C2.01177 5.81479 2.16649 5.34246 2.54605 4.9629C2.92561 4.58334 3.39794 4.42862 3.9211 4.35828C4.41675 4.29164 5.0411 4.29166 5.78984 4.29169L8.56483 4.29169C8.6077 3.56321 8.742 2.93362 9.21272 2.4629C9.59228 2.08334 10.0646 1.92862 10.5878 1.85828C11.0834 1.79164 11.7078 1.79166 12.4565 1.79169ZM9.1722 5.54169C9.17113 5.54169 9.17006 5.54169 9.16898 5.54169C9.16816 5.54169 9.16733 5.54169 9.1665 5.54169H5.83317C5.02983 5.54169 4.49019 5.54302 4.08766 5.59713C3.70311 5.64884 3.53853 5.73819 3.42993 5.84679C3.32134 5.95538 3.23199 6.11996 3.18028 6.50452C3.12616 6.90705 3.12484 7.44668 3.12484 8.25002V18.4584H6.87484V16.5834C6.87484 16.2382 7.15466 15.9584 7.49984 15.9584C7.84502 15.9584 8.12484 16.2382 8.12484 16.5834V18.4584H11.8748V8.25002C11.8748 7.44668 11.8735 6.90705 11.8194 6.50452C11.7677 6.11996 11.6783 5.95538 11.5697 5.84679C11.4611 5.73819 11.2966 5.64884 10.912 5.59713C10.5104 5.54314 9.9724 5.5417 9.1722 5.54169ZM13.1248 18.4584L13.1248 8.20669C13.1249 7.45796 13.1249 6.83361 13.0582 6.33796C12.9879 5.81479 12.8332 5.34246 12.4536 4.9629C12.0741 4.58334 11.6017 4.42862 11.0786 4.35828C10.7241 4.31063 10.3038 4.29706 9.8193 4.29321C9.86111 3.71018 9.95284 3.49055 10.0966 3.34679C10.2052 3.23819 10.3698 3.14884 10.7543 3.09713C11.1569 3.04302 11.6965 3.04169 12.4998 3.04169H14.1665C14.9698 3.04169 15.5095 3.04302 15.912 3.09713C16.2966 3.14884 16.4611 3.23819 16.5697 3.34679C16.6783 3.45538 16.7677 3.61996 16.8194 4.00452C16.8735 4.40705 16.8748 4.94668 16.8748 5.75002V18.4584H13.1248ZM4.37484 7.41669C4.37484 7.07151 4.65466 6.79169 4.99984 6.79169H9.99984C10.345 6.79169 10.6248 7.07151 10.6248 7.41669C10.6248 7.76187 10.345 8.04169 9.99984 8.04169H4.99984C4.65466 8.04169 4.37484 7.76187 4.37484 7.41669ZM4.37484 9.91669C4.37484 9.57151 4.65466 9.29169 4.99984 9.29169H9.99984C10.345 9.29169 10.6248 9.57151 10.6248 9.91669C10.6248 10.2619 10.345 10.5417 9.99984 10.5417H4.99984C4.65466 10.5417 4.37484 10.2619 4.37484 9.91669ZM4.37484 12.4167C4.37484 12.0715 4.65466 11.7917 4.99984 11.7917H9.99984C10.345 11.7917 10.6248 12.0715 10.6248 12.4167C10.6248 12.7619 10.345 13.0417 9.99984 13.0417H4.99984C4.65466 13.0417 4.37484 12.7619 4.37484 12.4167Z" fill="black"/>
</svg>
