<svg width="21" height="21" viewBox="0 0 21 21" fill="none" xmlns="http://www.w3.org/2000/svg">
<path fill-rule="evenodd" clip-rule="evenodd" d="M10.6667 2.91669C9.86126 2.91669 9.20834 3.5696 9.20834 4.37502C9.20834 5.18044 9.86126 5.83335 10.6667 5.83335C11.4721 5.83335 12.125 5.18044 12.125 4.37502C12.125 3.5696 11.4721 2.91669 10.6667 2.91669ZM7.95834 4.37502C7.95834 2.87925 9.1709 1.66669 10.6667 1.66669C12.1624 1.66669 13.375 2.87925 13.375 4.37502C13.375 5.87079 12.1624 7.08335 10.6667 7.08335C9.1709 7.08335 7.95834 5.87079 7.95834 4.37502ZM10.6667 8.76719C10.3699 8.7672 10.1008 8.78427 9.94913 8.80997L9.20617 8.93509C7.52906 9.21753 6.29167 10.6864 6.29167 12.4169C6.29167 13.3175 5.84625 14.1612 5.1004 14.6637L5.01604 14.7205C4.80373 14.8635 4.57334 14.9774 4.33092 15.059L3.36617 15.384C3.03905 15.4942 2.68455 15.3183 2.57437 14.9912C2.46419 14.6641 2.64005 14.3096 2.96718 14.1994L3.93192 13.8744C4.06815 13.8286 4.19789 13.7645 4.31767 13.6838L4.40203 13.6269C4.80003 13.3588 5.04167 12.9053 5.04167 12.4169C5.04167 10.0855 6.71051 8.08778 8.99858 7.70245L9.74023 7.57755C9.74015 7.57757 9.7403 7.57754 9.74023 7.57755C9.99391 7.53458 10.3442 7.5172 10.6666 7.51719C10.989 7.51717 11.3392 7.53446 11.593 7.57753C11.5929 7.57751 11.5931 7.57755 11.593 7.57753L12.3348 7.70245C14.6228 8.08778 16.2917 10.0855 16.2917 12.4169C16.2917 12.9053 16.5333 13.3588 16.9313 13.6269L17.0157 13.6838C17.1355 13.7645 17.2652 13.8286 17.4014 13.8744L18.3662 14.1994C18.6933 14.3096 18.8692 14.6641 18.759 14.9912C18.6488 15.3183 18.2943 15.4942 17.9672 15.384L17.0024 15.059C16.76 14.9774 16.5296 14.8635 16.3173 14.7205L16.2329 14.6637C15.4871 14.1612 15.0417 13.3175 15.0417 12.4169C15.0417 10.6864 13.8043 9.21753 12.1272 8.93509L11.384 8.80994C11.2326 8.78422 10.9636 8.76717 10.6667 8.76719ZM8.08334 13.5834C8.29045 13.3072 8.6822 13.2512 8.95834 13.4584C9.23448 13.6655 9.29045 14.0572 9.08334 14.3334L8.31292 15.3606C8.3068 15.3687 8.30075 15.3768 8.29478 15.3848C8.18942 15.5253 8.10658 15.6359 8.01112 15.7357C7.77626 15.9812 7.48974 16.1714 7.1723 16.2926C7.04327 16.3419 6.90925 16.3753 6.73882 16.4179C6.72916 16.4203 6.71939 16.4227 6.70949 16.4252L5.21498 16.7988C4.86825 16.8855 4.62501 17.1971 4.62501 17.5545C4.62501 17.9846 4.97372 18.3334 5.40389 18.3334H5.97369C7.26195 18.3334 8.51545 17.9155 9.54606 17.1426L11.125 15.9584C11.4011 15.7512 11.7929 15.8072 12 16.0834C12.2071 16.3595 12.1511 16.7512 11.875 16.9584L11.1211 17.5238L11.5309 17.6774C11.9759 17.8443 12.1765 17.9193 12.3781 17.9823C12.985 18.172 13.6129 18.2859 14.2477 18.3213C14.4586 18.3331 14.6728 18.3334 15.148 18.3334H15.9295C16.3596 18.3334 16.7083 17.9846 16.7083 17.5545C16.7083 17.1971 16.4651 16.8855 16.1184 16.7988L14.8904 16.4918C14.8674 16.4861 14.8446 16.4804 14.8222 16.4748C14.4258 16.376 14.1131 16.2981 13.8336 16.1369C13.75 16.0887 13.6696 16.0353 13.5928 15.977C13.3358 15.782 13.1426 15.524 12.8977 15.1971C12.8839 15.1785 12.8698 15.1598 12.8556 15.1408L12.25 14.3334C12.0429 14.0572 12.0989 13.6655 12.375 13.4584C12.6511 13.2512 13.0429 13.3072 13.25 13.5834L13.8556 14.3908C14.1627 14.8002 14.2485 14.9055 14.3485 14.9814C14.3834 15.0079 14.42 15.0321 14.458 15.054C14.5667 15.1167 14.697 15.155 15.1935 15.2792L16.4215 15.5862C17.3247 15.812 17.9583 16.6235 17.9583 17.5545C17.9583 18.675 17.05 19.5834 15.9295 19.5834H15.1269C14.6783 19.5834 14.4278 19.5834 14.178 19.5694C13.4402 19.5282 12.7104 19.3958 12.0052 19.1754C11.7664 19.1008 11.5319 19.0128 11.1118 18.8553L9.91802 18.4076C8.74839 19.1729 7.37811 19.5834 5.97369 19.5834H5.40389C4.28337 19.5834 3.37501 18.675 3.37501 17.5545C3.37501 16.6235 4.00862 15.812 4.91181 15.5862L6.40632 15.2125C6.61939 15.1593 6.67631 15.144 6.72652 15.1248C6.87082 15.0697 7.00105 14.9833 7.10781 14.8716C7.14496 14.8328 7.18114 14.7863 7.31292 14.6106L8.08334 13.5834Z" fill="white"/>
</svg>
