<svg width="21" height="21" viewBox="0 0 21 21" fill="none" xmlns="http://www.w3.org/2000/svg">
<path fill-rule="evenodd" clip-rule="evenodd" d="M10.6667 2.76044C9.86126 2.76044 9.20834 3.41335 9.20834 4.21877C9.20834 5.02419 9.86126 5.6771 10.6667 5.6771C11.4721 5.6771 12.125 5.02419 12.125 4.21877C12.125 3.41335 11.4721 2.76044 10.6667 2.76044ZM7.95834 4.21877C7.95834 2.723 9.1709 1.51044 10.6667 1.51044C12.1624 1.51044 13.375 2.723 13.375 4.21877C13.375 5.71454 12.1624 6.9271 10.6667 6.9271C9.1709 6.9271 7.95834 5.71454 7.95834 4.21877ZM10.6667 8.61094C10.3699 8.61095 10.1008 8.62802 9.94913 8.65372L9.20617 8.77884C7.52906 9.06128 6.29167 10.5301 6.29167 12.2606C6.29167 13.1613 5.84625 14.005 5.1004 14.5074L5.01604 14.5642C4.80373 14.7073 4.57334 14.8211 4.33092 14.9028L3.36617 15.2277C3.03905 15.3379 2.68455 15.1621 2.57437 14.8349C2.46419 14.5078 2.64005 14.1533 2.96718 14.0431L3.93192 13.7182C4.06815 13.6723 4.19789 13.6082 4.31767 13.5275L4.40203 13.4707C4.80003 13.2026 5.04167 12.7491 5.04167 12.2606C5.04167 9.92923 6.71051 7.93153 8.99858 7.5462L9.74023 7.4213C9.74015 7.42132 9.7403 7.42129 9.74023 7.4213C9.99391 7.37833 10.3442 7.36095 10.6666 7.36094C10.989 7.36092 11.3392 7.37821 11.593 7.42128C11.5929 7.42126 11.5931 7.4213 11.593 7.42128L12.3348 7.5462C14.6228 7.93153 16.2917 9.92923 16.2917 12.2606C16.2917 12.7491 16.5333 13.2026 16.9313 13.4707L17.0157 13.5275C17.1355 13.6082 17.2652 13.6723 17.4014 13.7182L18.3662 14.0431C18.6933 14.1533 18.8692 14.5078 18.759 14.8349C18.6488 15.1621 18.2943 15.3379 17.9672 15.2277L17.0024 14.9028C16.76 14.8211 16.5296 14.7073 16.3173 14.5642L16.2329 14.5074C15.4871 14.005 15.0417 13.1613 15.0417 12.2606C15.0417 10.5301 13.8043 9.06128 12.1272 8.77884L11.384 8.65369C11.2326 8.62797 10.9636 8.61092 10.6667 8.61094ZM8.08334 13.4271C8.29045 13.151 8.6822 13.095 8.95834 13.3021C9.23448 13.5092 9.29045 13.901 9.08334 14.1771L8.31292 15.2043C8.3068 15.2125 8.30075 15.2206 8.29478 15.2285C8.18942 15.3691 8.10658 15.4796 8.01112 15.5794C7.77626 15.825 7.48974 16.0152 7.1723 16.1364C7.04327 16.1856 6.90925 16.2191 6.73882 16.2616C6.72916 16.2641 6.71939 16.2665 6.70949 16.269L5.21498 16.6426C4.86825 16.7293 4.62501 17.0408 4.62501 17.3982C4.62501 17.8284 4.97372 18.1771 5.40389 18.1771H5.97369C7.26195 18.1771 8.51545 17.7593 9.54606 16.9863L11.125 15.8021C11.4011 15.595 11.7929 15.651 12 15.9271C12.2071 16.2032 12.1511 16.595 11.875 16.8021L11.1211 17.3675L11.5309 17.5212C11.9759 17.688 12.1765 17.7631 12.3781 17.8261C12.985 18.0158 13.6129 18.1296 14.2477 18.1651C14.4586 18.1769 14.6728 18.1771 15.148 18.1771H15.9295C16.3596 18.1771 16.7083 17.8284 16.7083 17.3982C16.7083 17.0408 16.4651 16.7293 16.1184 16.6426L14.8904 16.3356C14.8674 16.3298 14.8446 16.3242 14.8222 16.3186C14.4258 16.2198 14.1131 16.1418 13.8336 15.9807C13.75 15.9325 13.6696 15.8791 13.5928 15.8208C13.3358 15.6258 13.1426 15.3678 12.8977 15.0408C12.8839 15.0223 12.8698 15.0035 12.8556 14.9846L12.25 14.1771C12.0429 13.901 12.0989 13.5092 12.375 13.3021C12.6511 13.095 13.0429 13.151 13.25 13.4271L13.8556 14.2346C14.1627 14.644 14.2485 14.7492 14.3485 14.8251C14.3834 14.8516 14.42 14.8759 14.458 14.8978C14.5667 14.9605 14.697 14.9988 15.1935 15.1229L16.4215 15.4299C17.3247 15.6557 17.9583 16.4672 17.9583 17.3982C17.9583 18.5187 17.05 19.4271 15.9295 19.4271H15.1269C14.6783 19.4271 14.4278 19.4271 14.178 19.4132C13.4402 19.3719 12.7104 19.2396 12.0052 19.0191C11.7664 18.9445 11.5319 18.8566 11.1118 18.699L9.91802 18.2514C8.74839 19.0167 7.37811 19.4271 5.97369 19.4271H5.40389C4.28337 19.4271 3.37501 18.5187 3.37501 17.3982C3.37501 16.4672 4.00862 15.6557 4.91181 15.4299L6.40632 15.0563C6.61939 15.003 6.67631 14.9877 6.72652 14.9686C6.87082 14.9135 7.00105 14.827 7.10781 14.7154C7.14496 14.6766 7.18114 14.63 7.31292 14.4543L8.08334 13.4271Z" fill="black"/>
</svg>
