<svg width="20" height="21" viewBox="0 0 20 21" fill="none" xmlns="http://www.w3.org/2000/svg">
<path fill-rule="evenodd" clip-rule="evenodd" d="M10.7822 4.32143C11.1259 4.29012 11.43 4.54341 11.4613 4.88716C11.502 5.33406 11.5775 5.81992 11.7042 6.33117C11.7872 6.66621 11.5829 7.00512 11.2479 7.08815C10.9128 7.17118 10.5739 6.96688 10.4909 6.63184C10.3476 6.05375 10.2624 5.5049 10.2164 5.00054C10.1851 4.65679 10.4384 4.35274 10.7822 4.32143ZM4.36618 8.02569C4.56517 7.74365 4.95513 7.67632 5.23718 7.87531C5.65099 8.16727 6.08367 8.51554 6.51269 8.92865C6.76133 9.16808 6.7688 9.56374 6.52937 9.81238C6.28995 10.061 5.89429 10.0685 5.64565 9.82907C5.26624 9.46372 4.88324 9.15539 4.51656 8.89669C4.23452 8.6977 4.16719 8.30774 4.36618 8.02569ZM11.53 7.8719C11.8411 7.72241 12.2145 7.85345 12.364 8.16458C12.4671 8.37915 12.5808 8.59538 12.7062 8.8125C12.8315 9.02961 12.962 9.23622 13.0962 9.43278C13.2909 9.71781 13.2177 10.1067 12.9327 10.3014C12.6477 10.4961 12.2588 10.4229 12.0641 10.1379C11.9123 9.91566 11.765 9.68236 11.6237 9.4375C11.4823 9.19264 11.3539 8.94848 11.2373 8.70592C11.0878 8.39479 11.2189 8.02139 11.53 7.8719ZM7.06705 10.4486C7.35208 10.2539 7.74097 10.3271 7.93567 10.6121C8.08746 10.8343 8.2347 11.0676 8.37607 11.3125C8.51744 11.5574 8.64587 11.8015 8.76241 12.0441C8.91189 12.3552 8.78086 12.7286 8.46973 12.8781C8.1586 13.0276 7.7852 12.8965 7.63571 12.5854C7.53261 12.3708 7.41889 12.1546 7.29354 11.9375C7.16819 11.7204 7.03779 11.5138 6.90351 11.3172C6.70881 11.0322 6.78203 10.6433 7.06705 10.4486ZM13.4704 10.9376C13.7098 10.689 14.1054 10.6815 14.3541 10.9209C14.7335 11.2863 15.1165 11.5946 15.4832 11.8533C15.7652 12.0523 15.8325 12.4423 15.6336 12.7243C15.4346 13.0063 15.0446 13.0737 14.7626 12.8747C14.3487 12.5827 13.9161 12.2345 13.487 11.8213C13.2384 11.5819 13.2309 11.1863 13.4704 10.9376ZM8.75186 13.6618C9.08691 13.5788 9.42582 13.7831 9.50885 14.1182C9.65211 14.6962 9.73738 15.2451 9.78332 15.7495C9.81463 16.0932 9.56134 16.3973 9.21758 16.4286C8.87383 16.4599 8.56978 16.2066 8.53847 15.8628C8.49777 15.4159 8.42224 14.9301 8.29555 14.4188C8.21252 14.0838 8.41682 13.7449 8.75186 13.6618Z" fill="white"/>
<path fill-rule="evenodd" clip-rule="evenodd" d="M11.0716 1.48051C9.21255 1.25517 7.2666 1.60886 5.5207 2.61685C1.236 5.09063 -0.232051 10.5695 2.24172 14.8542C4.7155 19.1389 10.1943 20.6069 14.479 18.1331C16.2249 17.1251 17.5042 15.6167 18.2386 13.8941C19.3051 11.3924 19.2236 8.43436 17.758 5.89583C16.2924 3.3573 13.7714 1.80776 11.0716 1.48051ZM11.4835 2.94219C11.4425 3.28492 11.1314 3.52949 10.7886 3.48846C10.4459 3.44742 10.2013 3.13632 10.2424 2.79359C10.2475 2.75092 10.2527 2.70966 10.258 2.66986C8.86504 2.62174 7.44247 2.95069 6.1457 3.69939C4.84959 4.4477 3.85301 5.51557 3.19803 6.74603C3.23513 6.76131 3.27345 6.77739 3.31293 6.79429C3.63026 6.93012 3.7774 7.29748 3.64157 7.61481C3.50574 7.93214 3.13839 8.07928 2.82106 7.94345C2.77963 7.92572 2.73983 7.90909 2.70176 7.89353C2.0127 9.92276 2.16854 12.2274 3.32426 14.2292C4.47997 16.2309 6.39793 17.5182 8.49983 17.9361C8.50539 17.8953 8.51089 17.8525 8.51625 17.8078C8.55728 17.4651 8.86839 17.2205 9.21112 17.2615C9.55385 17.3026 9.79842 17.6137 9.75738 17.9564C9.75228 17.999 9.74704 18.0403 9.74173 18.08C11.1348 18.128 12.5579 17.7989 13.854 17.0506C15.1508 16.3019 16.147 15.2344 16.8018 14.004C16.7647 13.9887 16.7263 13.9726 16.6868 13.9557C16.3695 13.8199 16.2223 13.4525 16.3582 13.1352C16.494 12.8179 16.8613 12.6707 17.1787 12.8065C17.2201 12.8243 17.2599 12.8409 17.298 12.8565C17.9875 10.8261 17.831 8.52223 16.6755 6.52083C15.52 4.51943 13.603 3.23198 11.4999 2.8139C11.4944 2.85465 11.4888 2.89744 11.4835 2.94219Z" fill="white"/>
</svg>
