<svg width="21" height="21" viewBox="0 0 21 21" fill="none" xmlns="http://www.w3.org/2000/svg">
<path d="M16.5833 14.9583C16.5833 15.4186 16.2102 15.7917 15.75 15.7917C15.2898 15.7917 14.9167 15.4186 14.9167 14.9583C14.9167 14.4981 15.2898 14.125 15.75 14.125C16.2102 14.125 16.5833 14.4981 16.5833 14.9583Z" fill="white"/>
<path d="M5.75 4.95832C5.75 5.41856 5.3769 5.79166 4.91667 5.79166C4.45643 5.79166 4.08333 5.41856 4.08333 4.95832C4.08333 4.49809 4.45643 4.12499 4.91667 4.12499C5.3769 4.12499 5.75 4.49809 5.75 4.95832Z" fill="white"/>
<path fill-rule="evenodd" clip-rule="evenodd" d="M1.375 4.75609C1.375 2.87023 3.00372 1.41666 4.91667 1.41666C6.82962 1.41666 8.45833 2.87023 8.45833 4.75609C8.45833 6.44465 7.42016 8.43756 5.69563 9.17453C5.20018 9.38626 4.63316 9.38626 4.1377 9.17453C2.41317 8.43756 1.375 6.44465 1.375 4.75609ZM4.91667 2.66666C3.60796 2.66666 2.625 3.64367 2.625 4.75609C2.625 6.04231 3.44863 7.5207 4.62891 8.02508C4.81062 8.10274 5.02272 8.10274 5.20442 8.02508C6.38471 7.5207 7.20833 6.04231 7.20833 4.75609C7.20833 3.64367 6.22538 2.66666 4.91667 2.66666ZM9.70833 4.54166C9.70833 4.19648 9.98816 3.91666 10.3333 3.91666H13.7766C16.0693 3.91666 16.9412 6.91082 15.0069 8.14171L6.33086 13.6628C5.45164 14.2223 5.84797 15.5833 6.8901 15.5833H8.82445L8.64139 15.4003C8.39731 15.1562 8.39731 14.7605 8.64139 14.5164C8.88547 14.2723 9.2812 14.2723 9.52527 14.5164L10.7753 15.7664C11.0194 16.0105 11.0194 16.4062 10.7753 16.6503L9.52527 17.9003C9.2812 18.1443 8.88547 18.1443 8.64139 17.9003C8.39731 17.6562 8.39731 17.2605 8.64139 17.0164L8.82445 16.8333H6.8901C4.5974 16.8333 3.72551 13.8391 5.65976 12.6083L14.3358 7.08714C15.215 6.52764 14.8187 5.16666 13.7766 5.16666H10.3333C9.98816 5.16666 9.70833 4.88683 9.70833 4.54166ZM12.2083 14.7561C12.2083 12.8702 13.837 11.4167 15.75 11.4167C17.663 11.4167 19.2917 12.8702 19.2917 14.7561C19.2917 16.4446 18.2535 18.4376 16.529 19.1745C16.0335 19.3863 15.4665 19.3863 14.971 19.1745C13.2465 18.4376 12.2083 16.4446 12.2083 14.7561ZM15.75 12.6667C14.4413 12.6667 13.4583 13.6437 13.4583 14.7561C13.4583 16.0423 14.282 17.5207 15.4622 18.0251C15.6439 18.1027 15.8561 18.1027 16.0378 18.0251C17.218 17.5207 18.0417 16.0423 18.0417 14.7561C18.0417 13.6437 17.0587 12.6667 15.75 12.6667Z" fill="white"/>
</svg>
